{
	"asset":{
		"generator":"Khronos glTF Blender I/O v4.0.44",
		"version":"2.0"
	},
	"scene":0,
	"scenes":[
		{
			"name":"Scene",
			"nodes":[
				0
			]
		}
	],
	"nodes":[
		{
			"mesh":0,
			"name":"Text",
			"translation":[
				-1.3190760612487793,
				0.07902871072292328,
				0.08568926900625229
			]
		}
	],
	"materials":[
		{
			"doubleSided":true,
			"name":"Material.001",
			"pbrMetallicRoughness":{
				"baseColorFactor":[
					0.8008357286453247,
					0,
					0.011605984531342983,
					1
				],
				"metallicFactor":0,
				"roughnessFactor":0.5
			}
		}
	],
	"meshes":[
		{
			"name":"Text",
			"primitives":[
				{
					"attributes":{
						"POSITION":0,
						"NORMAL":1,
						"TEXCOORD_0":2
					},
					"indices":3,
					"material":0
				}
			]
		}
	],
	"accessors":[
		{
			"bufferView":0,
			"componentType":5126,
			"count":2761,
			"max":[
				5.199000358581543,
				0.1000000387430191,
				1.3143837451934814
			],
			"min":[
				-0.053710635751485825,
				-0.10000002384185791,
				-0.7527107000350952
			],
			"type":"VEC3"
		},
		{
			"bufferView":1,
			"componentType":5126,
			"count":2761,
			"type":"VEC3"
		},
		{
			"bufferView":2,
			"componentType":5126,
			"count":2761,
			"type":"VEC2"
		},
		{
			"bufferView":3,
			"componentType":5123,
			"count":13380,
			"type":"SCALAR"
		}
	],
	"bufferViews":[
		{
			"buffer":0,
			"byteLength":33132,
			"byteOffset":0,
			"target":34962
		},
		{
			"buffer":0,
			"byteLength":33132,
			"byteOffset":33132,
			"target":34962
		},
		{
			"buffer":0,
			"byteLength":22088,
			"byteOffset":66264,
			"target":34962
		},
		{
			"buffer":0,
			"byteLength":26760,
			"byteOffset":88352,
			"target":34963
		}
	],
	"buffers":[
		{
			"byteLength":115112,
			"uri":"text.bin"
		}
	]
}
